<svg width="60" height="60" viewBox="0 0 60 60" fill="none" xmlns="http://www.w3.org/2000/svg">
<path d="M32.8038 41.3285C30.848 43.4612 27.4758 45.9051 23.3087 41.7381L19.6273 38.0566C15.4602 33.8896 17.9042 30.5174 20.0368 28.5615C20.9811 27.6955 21.195 26.2789 20.5245 25.187C17.8445 20.8228 14.3346 18.2183 12.2084 16.9309C11.1498 16.2899 9.78974 16.4605 8.91458 17.3355L5.23384 21.0163C-2.49585 28.746 8.84861 39.3814 8.84861 39.3814L21.9838 52.5166C21.9838 52.5166 32.6193 63.8611 40.3488 56.1314L44.0296 52.4506C44.9046 51.5756 45.0752 50.2155 44.4342 49.157C43.1467 47.0307 40.5422 43.5208 36.1781 40.8409C35.0864 40.1703 33.67 40.3841 32.8038 41.3285Z" fill="#FA81AC"/>
<path d="M43.0742 1.17188C35.1281 1.17188 28.6865 7.61344 28.6865 15.5596C28.6865 18.948 29.8585 22.0624 31.8185 24.5208L31.8177 24.5212V31.9167L38.7548 29.2871C40.1183 29.7158 41.5692 29.9473 43.0742 29.9473C51.0204 29.9473 57.4619 23.5057 57.4619 15.5596C57.4619 7.61344 51.0204 1.17188 43.0742 1.17188Z" fill="#A0C8FF"/>
<path d="M36.7916 39.8422C35.229 38.8827 33.1889 39.1746 31.9401 40.5364C30.547 42.0555 29.2394 42.8076 27.9429 42.8355C26.72 42.8655 25.4418 42.2138 24.1374 40.9093L20.456 37.2278C19.1515 35.9232 18.5034 34.6428 18.5297 33.4222C18.5577 32.1256 19.3098 30.8181 20.8288 29.4251C22.1905 28.1763 22.4824 26.136 21.5231 24.5736C18.798 20.1361 15.2837 17.4229 12.8154 15.9284C11.2927 15.0063 9.34801 15.2445 8.08602 16.5069L4.40516 20.1876C2.34477 22.248 1.32243 24.6805 1.36661 27.4174C1.47114 33.9067 7.60438 39.8179 8.03247 40.2225L10.9911 43.1811C11.4488 43.6386 12.1906 43.6386 12.6485 43.1811C13.1061 42.7235 13.1061 41.9815 12.6485 41.5237L9.67731 38.5527C9.66887 38.5442 9.65961 38.5353 9.65071 38.527C9.59223 38.4719 3.79544 32.9567 3.70989 27.3731C3.67766 25.2684 4.44711 23.46 6.06243 21.8448L9.74329 18.164C10.2405 17.6667 11.0046 17.5718 11.6013 17.9332C13.4404 19.0469 16.9156 21.5498 19.5257 25.8002C19.899 26.4081 19.7807 27.206 19.2446 27.6977C17.2573 29.5203 16.2284 31.4293 16.1864 33.3717C16.1456 35.2561 17.0245 37.111 18.7985 38.8851L22.4799 42.5667C24.2539 44.3407 26.1055 45.2221 27.9934 45.1788C29.9357 45.1369 31.8447 44.1078 33.6674 42.1205C34.159 41.5844 34.957 41.466 35.565 41.8394C39.8151 44.4493 42.3181 47.9246 43.432 49.7638C43.7933 50.3605 43.6982 51.1247 43.201 51.6219L39.5202 55.3026C37.9049 56.9178 36.095 57.6825 33.9918 57.6552C28.4083 57.5695 22.8931 51.7728 22.8386 51.7149C22.8301 51.7058 22.8214 51.6968 22.8124 51.6879L19.9299 48.8054C19.4722 48.3479 18.7304 48.3479 18.2725 48.8054C17.8149 49.263 17.8149 50.0051 18.2725 50.4628L21.1425 53.3327C21.547 53.7607 27.4583 59.8938 33.9475 59.9986C34.0043 59.9995 34.0606 60 34.1171 60C36.7849 59.9999 39.1596 58.9776 41.1773 56.9601L44.8582 53.2793C46.1204 52.0169 46.3583 50.0721 45.4366 48.5499C43.9421 46.0815 41.2289 42.5672 36.7916 39.8422Z" fill="black"/>
<path d="M43.0742 0C34.4946 0 27.5146 6.98004 27.5146 15.5595C27.5146 18.9802 28.5959 22.2079 30.6458 24.921V31.9166C30.6458 32.7218 31.4779 33.2987 32.2331 33.0124L38.7989 30.5236C40.1847 30.919 41.6209 31.1191 43.0742 31.1191C51.6538 31.1191 58.6337 24.1391 58.6337 15.5596C58.6338 6.98004 51.6538 0 43.0742 0ZM43.0742 28.7754C41.7208 28.7754 40.3858 28.5715 39.1063 28.1691C38.8554 28.0904 38.5854 28.098 38.3394 28.1912L32.9895 30.2191V24.5643C32.9998 24.2861 32.9108 24.0109 32.7348 23.7904C30.853 21.43 29.8584 18.5838 29.8584 15.5596C29.8584 8.27238 35.787 2.34375 43.0742 2.34375C50.3614 2.34375 56.2899 8.27238 56.2899 15.5595C56.29 22.8468 50.3614 28.7754 43.0742 28.7754Z" fill="black"/>
<path d="M43.2277 7.17926C42.5805 7.17926 42.0558 7.70403 42.0558 8.35114L42.0557 17.2199C42.0557 17.867 42.5803 18.3918 43.2275 18.3918C43.8746 18.3918 44.3994 17.867 44.3994 17.2199L44.3995 8.35114C44.3995 7.70391 43.8749 7.17926 43.2277 7.17926Z" fill="black"/>
<path d="M44.3089 22.1532C44.0634 21.5633 43.3689 21.2753 42.7784 21.5192C42.1878 21.763 41.901 22.4601 42.1444 23.0496C42.388 23.6397 43.0853 23.9287 43.675 23.6836C44.2659 23.438 44.5515 22.7444 44.3089 22.1532Z" fill="black"/>
<path d="M16.5076 45.5108C16.262 44.9216 15.5682 44.6319 14.9771 44.8769C14.3878 45.1211 14.098 45.8175 14.3432 46.4074C14.5881 46.9968 15.2835 47.2864 15.8737 47.0414C16.4625 46.7968 16.7532 46.1006 16.5076 45.5108Z" fill="black"/>
</svg>
