<svg width="60" height="60" viewBox="0 0 60 60" fill="none" xmlns="http://www.w3.org/2000/svg">
<g clip-path="url(#clip0)">
<path fill-rule="evenodd" clip-rule="evenodd" d="M1.20117 48.0356C5.82937 48.859 11.9084 47.7401 15.9057 45.7215C19.7072 47.1724 23.9404 47.6273 28.2298 46.8272C29.5545 46.5814 30.8293 46.2262 32.0511 45.7713V39.317C32.0511 38.6729 32.5791 38.1416 33.2231 38.1416H42.2803C46.0254 33.1912 47.7518 26.7435 46.5233 20.1596C44.2126 7.74221 32.2737 -0.448615 19.8566 1.86221C9.2557 3.83775 1.73238 12.832 1.20117 23.1478V25.4918C1.25426 26.5011 1.37051 27.5137 1.56305 28.533C2.11418 31.5112 3.22641 34.2437 4.76027 36.6474C4.40168 40.4258 3.62812 43.7891 1.20117 47.9791V48.0356ZM20.856 24.4991C20.856 23.0781 22.0147 21.9193 23.4356 21.9193C26.2809 21.9193 28.5485 19.5156 28.3991 16.6801C28.2663 14.107 26.1149 12.0319 23.5418 11.9788C21.0285 11.929 18.8605 13.7617 18.5153 16.2518C18.3193 17.6595 17.0113 18.6456 15.6036 18.4497C14.196 18.2539 13.2066 16.9458 13.4024 15.538C14.1096 10.4614 18.5186 6.71635 23.6448 6.81924C28.9237 6.92553 33.2796 11.1388 33.5552 16.4112C33.8075 21.2985 30.534 25.5515 26.0187 26.7467V28.8783C26.0187 30.2993 24.8566 31.458 23.4356 31.458C22.0146 31.458 20.856 30.2993 20.856 28.8783V24.4991ZM20.856 38.8354C20.856 37.4077 22.0113 36.2524 23.4356 36.2524C24.8632 36.2524 26.0187 37.4077 26.0187 38.8354C26.0187 40.2597 24.8633 41.4152 23.4356 41.4152C22.0113 41.4152 20.856 40.2599 20.856 38.8354Z" fill="#FA81AC"/>
<path fill-rule="evenodd" clip-rule="evenodd" d="M20.8572 28.8784C20.8572 30.2994 22.016 31.4581 23.4369 31.4581C24.8579 31.4581 26.0199 30.2994 26.0199 28.8784V26.7469C30.5352 25.5515 33.8088 21.2985 33.5565 16.4113C33.2809 11.1389 28.925 6.92553 23.6461 6.81936C18.5199 6.71647 14.1109 10.4615 13.4036 15.5381C13.2077 16.9459 14.1971 18.254 15.6049 18.4499C17.0127 18.6457 18.3207 17.6597 18.5165 16.2519C18.8618 13.7618 21.0299 11.9291 23.5431 11.9789C26.1161 12.032 28.2675 14.1071 28.4004 16.6802C28.5498 19.5157 26.2822 21.9194 23.4369 21.9194C22.0159 21.9194 20.8572 23.0782 20.8572 24.4992V28.8784Z" fill="#FAF7F5"/>
<path fill-rule="evenodd" clip-rule="evenodd" d="M20.8555 38.8355C20.8555 40.2598 22.0108 41.4152 23.4351 41.4152C24.8627 41.4152 26.0182 40.2599 26.0182 38.8355C26.0182 37.4078 24.8628 36.2524 23.4351 36.2524C22.0108 36.2524 20.8555 37.4078 20.8555 38.8355Z" fill="#FAF7F5"/>
<path fill-rule="evenodd" clip-rule="evenodd" d="M33.2228 53.9687H48.2793L54.4346 58.5305V53.9687H57.6518C58.2959 53.9687 58.8271 53.4407 58.8271 52.7933V39.3167C58.8271 38.6693 58.2959 38.1413 57.6518 38.1413H42.2798H33.2228C32.5787 38.1413 32.0508 38.6725 32.0508 39.3167V45.7711V52.7932C32.0508 53.4375 32.5787 53.9687 33.2228 53.9687Z" fill="#A0C8FF"/>
<path d="M23.4362 35.0804C21.3676 35.0804 19.6846 36.7633 19.6846 38.8322C19.6846 40.9026 21.3675 42.5871 23.4362 42.5871C25.5067 42.5871 27.1911 40.9026 27.1911 38.8322C27.1911 36.7635 25.5067 35.0804 23.4362 35.0804ZM23.4362 40.2433C22.66 40.2433 22.0283 39.6103 22.0283 38.8322C22.0283 38.0558 22.66 37.4242 23.4362 37.4242C24.2143 37.4242 24.8474 38.0558 24.8474 38.8322C24.8474 39.6103 24.2143 40.2433 23.4362 40.2433Z" fill="black"/>
<path d="M27.1912 27.6103C31.8594 25.9577 34.985 21.3627 34.7261 16.35C34.4186 10.4673 29.5619 5.76621 23.669 5.6475C17.9486 5.53207 13.0311 9.71508 12.2424 15.3764C12.1045 16.3673 12.362 17.3542 12.9675 18.1552C13.5729 18.9558 14.452 19.4726 15.4427 19.6104C16.4332 19.7483 17.4199 19.4917 18.2204 18.8876C19.0216 18.283 19.5387 17.4043 19.6766 16.4128C19.9365 14.5399 21.548 13.1496 23.4415 13.1496C23.467 13.1496 23.4929 13.1498 23.5183 13.1504C25.4644 13.1906 27.1293 14.8011 27.2295 16.7418C27.2849 17.7925 26.9144 18.7939 26.1862 19.5615C25.4606 20.3263 24.484 20.7475 23.4363 20.7475C21.3677 20.7475 19.6846 22.4304 19.6846 24.4991V28.8784C19.6846 30.947 21.3675 32.63 23.4363 32.63C25.5067 32.63 27.1912 30.9471 27.1912 28.8784V27.6103ZM25.7195 25.6139C25.2054 25.75 24.8476 26.2151 24.8476 26.7468V28.8783C24.8476 29.6545 24.2145 30.2862 23.4364 30.2862C22.6601 30.2862 22.0285 29.6545 22.0285 28.8783V24.499C22.0285 23.7227 22.6601 23.0911 23.4364 23.0911C25.1335 23.0911 26.714 22.4103 27.8866 21.1745C29.0447 19.9537 29.6585 18.2931 29.5702 16.6196C29.4054 13.4263 26.7684 10.8731 23.5659 10.807C23.5244 10.8062 23.4834 10.8057 23.442 10.8057C20.3812 10.8057 17.7759 13.0577 17.3554 16.0902C17.304 16.4605 17.1098 16.7896 16.8088 17.0166C16.5077 17.2439 16.1375 17.3404 15.766 17.2889C15.395 17.2373 15.0652 17.0428 14.8373 16.7414C14.6095 16.4401 14.5124 16.07 14.5639 15.6995C15.1888 11.2136 19.0872 7.89914 23.6221 7.99067C28.2926 8.08477 32.1421 11.8103 32.3858 16.4714C32.6033 20.689 29.7998 24.5338 25.7195 25.6139Z" fill="black"/>
<path d="M57.6528 36.9697H44.4987C47.6163 31.9129 48.7737 25.8274 47.6761 19.9454C46.5013 13.6322 42.9382 8.15461 37.6435 4.52168C32.3489 0.888866 25.9562 -0.465118 19.6421 0.710272C16.6253 1.27348 13.7917 2.38207 11.2202 4.00547C10.673 4.35094 10.5095 5.07469 10.8549 5.62207C11.2004 6.16922 11.9241 6.33293 12.4716 5.98734C14.791 4.52297 17.3482 3.52265 20.0716 3.0143C25.7687 1.95422 31.5389 3.17543 36.3175 6.4541C41.0959 9.73289 44.3116 14.6763 45.3721 20.3746C46.4532 26.1696 45.1114 32.1838 41.6883 36.9696H33.2238C31.9315 36.9696 30.88 38.0225 30.88 39.3168V44.9396C29.9463 45.2477 28.9864 45.495 28.0155 45.6751C24.0851 46.4081 20.0422 46.0457 16.3242 44.6266C16.0158 44.5087 15.6722 44.5267 15.3774 44.6757C11.896 46.4366 6.96596 47.3655 3.02612 47.0787C5.08147 43.0564 5.64503 39.7486 5.92768 36.7577C5.95218 36.4978 5.88925 36.2373 5.74886 36.0172C4.24569 33.6614 3.22534 31.0717 2.71569 28.3184C1.73378 23.0537 2.726 17.6372 5.50956 13.0665C5.84612 12.5137 5.67093 11.7928 5.11815 11.4561C4.56514 11.1193 3.84432 11.2946 3.50776 11.8475C0.423152 16.9123 -0.676418 22.9144 0.411316 28.7463C0.950848 31.6615 2.008 34.4128 3.55534 36.9305C3.20132 40.3554 2.45471 43.492 0.158894 47.44C-0.0332931 47.7704 -0.0522775 48.1739 0.108152 48.5209C0.268582 48.8679 0.588152 49.1148 0.964441 49.1825C2.06612 49.3807 3.26436 49.4762 4.51112 49.4762C8.34104 49.4761 12.6268 48.5763 15.9708 46.9946C19.958 48.4189 24.2597 48.7602 28.4441 47.9795C29.2652 47.8273 30.0797 47.6311 30.88 47.3951V52.7936C30.88 54.0878 31.9315 55.1407 33.2238 55.1407H47.8935L53.738 59.4723C53.9437 59.6249 54.189 59.7027 54.4358 59.7027C54.6156 59.7027 54.7962 59.6613 54.9628 59.5775C55.3581 59.3784 55.6076 58.9736 55.6076 58.5308V55.1407H57.6528C58.9471 55.1407 60 54.0878 60 52.7936V39.317C60 38.0227 58.9471 36.9697 57.6528 36.9697ZM57.6528 52.7968H54.4357C53.7886 52.7968 53.2638 53.3216 53.2638 53.9687V56.2035L48.9782 53.0272C48.7762 52.8777 48.5317 52.7968 48.2804 52.7968L33.2238 52.7934L33.2239 39.3135H57.653L57.6564 39.3169L57.6528 52.7968Z" fill="black"/>
<path d="M52.2354 44.8817C51.5882 44.8817 51.0635 45.4097 51.0635 46.0568C51.0635 46.7039 51.5882 47.2287 52.2354 47.2287C52.8825 47.2287 53.4072 46.7039 53.4072 46.0568V46.0501C53.4072 45.403 52.8825 44.8817 52.2354 44.8817Z" fill="black"/>
<path d="M45.4375 44.8817C44.7904 44.8817 44.2656 45.4097 44.2656 46.0568C44.2656 46.7039 44.7904 47.2287 45.4375 47.2287C46.0846 47.2287 46.6094 46.7039 46.6094 46.0568V46.0501C46.6094 45.403 46.0847 44.8817 45.4375 44.8817Z" fill="black"/>
<path d="M38.6455 44.8817C37.9984 44.8817 37.4736 45.4097 37.4736 46.0568C37.4736 46.7039 37.9984 47.2287 38.6455 47.2287C39.2926 47.2287 39.8174 46.7039 39.8174 46.0568V46.0501C39.8174 45.403 39.2926 44.8817 38.6455 44.8817Z" fill="black"/>
<path d="M7.72962 9.48879C7.90575 9.48879 8.08458 9.44894 8.25274 9.3648L8.25942 9.36152C8.83833 9.07207 9.06965 8.36976 8.7802 7.79097C8.49075 7.21207 7.78329 6.9791 7.20473 7.26855C6.62583 7.558 6.39122 8.26195 6.68055 8.84074C6.88587 9.25136 7.29965 9.48879 7.72962 9.48879Z" fill="black"/>
</g>
<defs>
<clipPath id="clip0">
<rect width="60" height="60" fill="white"/>
</clipPath>
</defs>
</svg>
