<svg width="60" height="60" viewBox="0 0 60 60" fill="none" xmlns="http://www.w3.org/2000/svg">
<g clip-path="url(#clip0)">
<path d="M54.3591 23.3489L32.1968 1.17329C30.4918 1.17282 29.5358 1.17247 27.8308 1.172L5.64082 23.3486C4.72783 24.261 4.21484 25.4989 4.21484 26.7896V53.9631C4.21484 56.6499 6.39289 58.828 9.0797 58.828H50.9179C53.6047 58.828 55.7828 56.6499 55.7828 53.9631V26.788C55.783 25.4982 55.2708 24.2612 54.3591 23.3489Z" fill="#8690A6"/>
<path d="M9.84082 30.3806V11.0221C9.84082 9.07374 11.4202 7.49435 13.3685 7.49435H46.6299C48.5783 7.49435 50.1576 9.07374 50.1576 11.0221V30.3971L33.4413 46.9707C31.4758 48.9194 28.3039 48.9098 26.3503 46.9492L9.84082 30.3806Z" fill="white"/>
<path d="M33.4524 47.1167C31.553 49.0171 28.4728 49.018 26.5724 47.1188L4.52609 25.0784C4.32228 25.6204 4.21387 26.1993 4.21387 26.7896V53.963C4.21387 56.6498 6.39191 58.828 9.07884 58.828H50.917C53.6039 58.828 55.782 56.65 55.782 53.963V26.7878C55.782 26.2018 55.6753 25.6272 55.4744 25.0886L33.4524 47.1167Z" fill="#FA81AC"/>
<path d="M55.188 22.5203L51.3293 18.66V11.0104C51.3293 8.4254 49.2262 6.32236 46.6413 6.32236H38.9998L33.0258 0.344803C32.8061 0.125052 32.508 0.0014064 32.1972 0.0012892L27.8311 0C27.831 0 27.8309 0 27.8308 0C27.5201 0 27.2221 0.123412 27.0023 0.343045L21.0192 6.32248H13.3565C10.7715 6.32248 8.66846 8.42551 8.66846 11.0105V18.6723L4.81234 22.5195C3.6714 23.6599 3.04297 25.1763 3.04297 26.7896V53.963C3.04297 55.5892 3.69038 57.066 4.73956 58.1526C4.76218 58.1796 4.78573 58.2063 4.81117 58.2318C4.83648 58.2571 4.86297 58.2804 4.88992 58.3029C5.97649 59.3524 7.45356 60 9.07995 60H24.725C25.3723 60 25.897 59.4752 25.897 58.828C25.897 58.1808 25.3723 57.656 24.725 57.656H9.07983C8.48832 57.656 7.92939 57.5155 7.43317 57.2671L21.2474 43.4529L25.7449 47.9476C26.885 49.0872 28.4004 49.7145 30.0122 49.7145H30.0141C31.6267 49.7141 33.1424 49.0856 34.2823 47.945L38.761 43.4635L52.5646 57.2671C52.0685 57.5154 51.5094 57.656 50.9179 57.656H35.273C34.6257 57.656 34.101 58.1808 34.101 58.828C34.101 59.4752 34.6257 60 35.273 60H50.9182C52.5443 60 54.0214 59.3525 55.1079 58.3032C55.135 58.2806 55.1616 58.2571 55.1869 58.2318C55.2125 58.2063 55.2359 58.1796 55.2587 58.1525C56.3077 57.0659 56.9551 55.5891 56.9551 53.963V26.7878C56.955 25.1761 56.3275 23.6606 55.188 22.5203ZM51.3294 21.9756L53.5301 24.1773C53.7333 24.3807 53.909 24.604 54.0572 24.8422L51.3294 27.5718V21.9756ZM28.3159 2.34412L31.711 2.34529L35.6858 6.32248H24.3351L28.3159 2.34412ZM6.46861 24.1783L8.66857 21.9833V27.5679L5.94144 24.8426C6.0897 24.6045 6.2655 24.3813 6.46861 24.1783ZM5.77572 55.6097C5.52749 55.1136 5.38697 54.5546 5.38697 53.9631V27.6021L19.5895 41.7959L5.77572 55.6097ZM32.6245 46.2882C31.9272 46.9859 31 47.3702 30.0135 47.3705C30.0132 47.3705 30.0128 47.3705 30.0125 47.3705C29.0265 47.3705 28.0994 46.9867 27.402 46.2896L11.0126 29.9104V11.0104C11.0126 9.71788 12.0641 8.66636 13.3566 8.66636H46.6414C47.9339 8.66636 48.9854 9.71788 48.9854 11.0104V18.9957C48.9743 19.0888 48.9743 19.1828 48.9854 19.276V29.9171L32.6245 46.2882ZM54.611 53.9631C54.611 54.5546 54.4705 55.1136 54.2223 55.6097L40.4182 41.8056L54.611 27.6041V53.9631Z" fill="black"/>
<path d="M29.9991 57.6556C29.6909 57.6556 29.3885 57.781 29.1705 57.999C28.9526 58.217 28.8271 58.5194 28.8271 58.8276C28.8271 59.1359 28.9526 59.4383 29.1705 59.6563C29.3885 59.8754 29.6909 59.9996 29.9991 59.9996C30.3074 59.9996 30.6098 59.8754 30.8277 59.6563C31.0457 59.4383 31.1711 59.1359 31.1711 58.8276C31.1711 58.5194 31.0457 58.217 30.8277 57.999C30.6098 57.7812 30.3074 57.6556 29.9991 57.6556Z" fill="black"/>
<path d="M29.9993 13.5815C23.8976 13.5815 18.9336 18.5454 18.9336 24.647C18.9336 30.8322 23.9656 35.8641 30.1507 35.8641H37.274C37.9213 35.8641 38.446 35.3393 38.446 34.6921C38.446 34.045 37.9213 33.5201 37.274 33.5201H30.1507C25.2581 33.5201 21.2776 29.5397 21.2776 24.647C21.2776 19.838 25.1901 15.9255 29.9993 15.9255C34.8085 15.9255 38.7209 19.838 38.7209 24.647V27.0488C38.7209 27.9719 37.9699 28.7228 37.0469 28.7228C36.1238 28.7228 35.3728 27.9719 35.3728 27.0488V24.336C35.3728 21.1272 32.7623 18.5167 29.5534 18.5167C26.1793 18.5167 23.4343 21.2617 23.4343 24.6359C23.4343 28.01 26.1794 30.755 29.5534 30.755H31.4179C32.0652 30.755 32.5899 30.2302 32.5899 29.583C32.5899 28.9359 32.0652 28.411 31.4179 28.411H29.5534C27.4718 28.411 25.7783 26.7175 25.7783 24.6358C25.7783 22.5542 27.4718 20.8607 29.5534 20.8607C31.4698 20.8607 33.0288 22.4198 33.0288 24.336V27.0488C33.0288 29.2644 34.8312 31.0668 37.0469 31.0668C39.2625 31.0668 41.0649 29.2644 41.0649 27.0488V24.647C41.0648 18.5454 36.1008 13.5815 29.9993 13.5815Z" fill="black"/>
</g>
<defs>
<clipPath id="clip0">
<rect width="60" height="60" fill="white"/>
</clipPath>
</defs>
</svg>
